<?xml version="1.0" encoding="utf-8"?><svg width="24" height="24" xmlns="http://www.w3.org/2000/svg" viewBox="0 0 24 24"><path d="M7.2 8.4a1.2 1.2 0 1 0 0-2.4 1.2 1.2 0 0 0 0 2.4ZM7.2 13.2a1.2 1.2 0 1 0 0-2.4 1.2 1.2 0 0 0 0 2.4ZM8.4 16.8a1.2 1.2 0 1 1-2.4 0 1.2 1.2 0 0 1 2.4 0ZM10.5 16.2h7.2a.3.3 0 0 1 .3.3v.6a.3.3 0 0 1-.3.3h-7.2a.3.3 0 0 1-.3-.3v-.6a.3.3 0 0 1 .3-.3ZM10.5 11.4h4.8a.3.3 0 0 1 .3.3v.6a.3.3 0 0 1-.3.3h-4.8a.3.3 0 0 1-.3-.3v-.6a.3.3 0 0 1 .3-.3ZM10.5 6.6h6a.3.3 0 0 1 .3.3v.6a.3.3 0 0 1-.3.3h-6a.3.3 0 0 1-.3-.3v-.6a.3.3 0 0 1 .3-.3Z"/></svg>