<?xml version="1.0" encoding="utf-8"?><svg width="24" height="24" xmlns="http://www.w3.org/2000/svg" viewBox="0 0 24 24"><path d="M8.995 5.25a3.5 3.5 0 1 0 0 7 3.5 3.5 0 0 0 0-7ZM8.995 13.25a9.293 9.293 0 0 0-1.61.135c-2.18.447-4.14 1.885-4.14 3.945 0 .73.564 1.42 1.37 1.42h8.75c.809 0 1.38-.682 1.38-1.42 0-2.05-1.958-3.498-4.14-3.945a9.38 9.38 0 0 0-1.61-.135ZM14.855 13.25a.75.75 0 0 0-.542 1.268c.773.808 1.192 1.777 1.192 2.812 0 .163-.021.327-.061.504a.75.75 0 0 0 .731.916h3.21c.806 0 1.37-.69 1.37-1.42 0-2.06-1.96-3.498-4.14-3.945l-.013-.002-.009-.002a9.293 9.293 0 0 0-1.588-.131h-.15Z"/><path d="M14.995 5.25c-.739 0-1.415.23-1.972.61a.75.75 0 0 0-.245.963c.297.578.467 1.23.467 1.927 0 .696-.17 1.349-.467 1.927a.75.75 0 0 0 .137.873l.01.01c.033.033.069.063.107.09a3.47 3.47 0 0 0 1.963.6c1.934 0 3.5-1.566 3.5-3.5s-1.566-3.5-3.5-3.5Z"/></svg>