<?xml version="1.0" encoding="utf-8"?><svg width="24" height="24" xmlns="http://www.w3.org/2000/svg" viewBox="0 0 24 24"><path d="M16 7.765H5c-.41 0-.75-.34-.75-.75s.34-.75.75-.75h11c.41 0 .75.34.75.75s-.34.75-.75.75ZM12 11.255c.41 0 .75.34.75.75s-.34.75-.75.75H5c-.41 0-.75-.34-.75-.75s.34-.75.75-.75h7ZM10 16.245H5c-.41 0-.75.34-.75.75s.34.75.75.75h5c.41 0 .75-.34.75-.75s-.34-.75-.75-.75ZM18.47 15.465c.29-.29.77-.29 1.06 0 .29.29.29.77 0 1.06l-3 3a.776.776 0 0 1-.53.22c-.1 0-.2-.02-.29-.06a.633.633 0 0 1-.24-.16l-3-3a.754.754 0 0 1 0-1.06c.29-.29.77-.29 1.06 0l1.72 1.72v-6.19c0-.41.34-.75.75-.75s.75.34.75.75v6.19l1.72-1.72Z"/></svg>