<?xml version="1.0" encoding="utf-8"?><svg width="24" height="24" xmlns="http://www.w3.org/2000/svg" viewBox="0 0 24 24"><path d="M6.3 6h9a.3.3 0 0 1 .3.3v.6a.3.3 0 0 1-.3.3h-9a.3.3 0 0 1-.3-.3v-.6a.3.3 0 0 1 .3-.3ZM15.3 14.1h-9a.3.3 0 0 0-.3.3v.6a.3.3 0 0 0 .3.3h9a.3.3 0 0 0 .3-.3v-.6a.3.3 0 0 0-.3-.3ZM11.7 16.8H6.3a.3.3 0 0 0-.3.3v.6a.3.3 0 0 0 .3.3h5.4a.3.3 0 0 0 .3-.3v-.6a.3.3 0 0 0-.3-.3ZM12.9 11.4H6.3a.3.3 0 0 0-.3.3v.6a.3.3 0 0 0 .3.3h6.6a.3.3 0 0 0 .3-.3v-.6a.3.3 0 0 0-.3-.3ZM6.3 8.7h11.4a.3.3 0 0 1 .3.3v.6a.3.3 0 0 1-.3.3H6.3a.3.3 0 0 1-.3-.3V9a.3.3 0 0 1 .3-.3Z"/></svg>